# xmcd
#
# Track frame offsets: 
#        150
#        16165
#        34022
#        49642
#        67523
#        81768
#        119410
#        132232
#        147792
#
# Disc length: 2243 seconds
#
# Revision: 0
# Processed by: cddbd v1.5.2PL0 Copyright (c) Steve Scherf et al.
# Submitted via: ExactAudioCopyFreeDBPlugin 1.0
#
DISCID=6908c109
DTITLE=Various Artist - Immediate Lets You In
DYEAR=1999
DGENRE=Psychedelic Rock
TTITLE0=Small Faces - Afterglow
TTITLE1=Chris Farlowe - Handbags and Gladrags
TTITLE2=The Nice - Happy Freuds
TTITLE3=John Mayall - Telephone Blues
TTITLE4=Eric Clapton - Draggin' My Tail
TTITLE5=The Nice - Rondo
TTITLE6=Cyril Davies - Someday Baby
TTITLE7=P.P. Arnold - God Only Knows
TTITLE8=Duncan Browne - The Death Of Neil
EXTD=
EXTT0=
EXTT1=
EXTT2=
EXTT3=
EXTT4=
EXTT5=
EXTT6=
EXTT7=
EXTT8=
PLAYORDER=
